<svg width="242" height="62" viewBox="0 0 242 62" fill="none" xmlns="http://www.w3.org/2000/svg">
<g id="Group">
<g id="Group_2">
<path id="Vector" d="M128.317 16.2768L133.069 4.1432C133.22 3.69928 133.597 3.47733 134.578 3.47733C135.559 3.47733 135.861 3.69928 136.087 4.1432L140.915 16.2768C140.99 16.4248 140.387 16.9427 139.708 16.9427C139.255 16.9427 138.727 16.7208 138.425 15.9809L137.218 13.0215H131.862L130.655 16.0549C130.354 16.7947 129.901 17.0167 129.449 17.0167C128.845 16.9427 128.242 16.4988 128.317 16.2768ZM136.69 11.2458L134.503 5.6969L132.315 11.2458H136.69Z" fill="#0075C9"/>
<path id="Vector_2" d="M146.724 6.80667C149.591 6.80667 151.552 8.80428 151.552 11.7637V11.8377C151.552 12.2816 151.401 12.4296 150.949 12.4296H143.556C143.556 12.5776 143.556 12.6515 143.631 12.7995C143.933 14.4272 145.215 15.463 147.026 15.463C148.761 15.463 149.666 14.7231 150.194 13.8353C150.27 13.7613 151.25 13.9833 151.25 14.7971C151.25 15.241 150.873 15.7589 150.119 16.2029C149.364 16.6468 148.308 17.0167 146.95 17.0167C143.782 17.0167 141.67 14.9451 141.67 11.9117C141.594 9.02624 143.782 6.80667 146.724 6.80667ZM146.724 8.28638C145.065 8.28638 143.782 9.47016 143.556 11.0978H149.515C149.44 9.39617 148.384 8.28638 146.724 8.28638Z" fill="#0075C9"/>
<path id="Vector_3" d="M159.623 8.06443C159.623 8.80428 159.02 9.17421 159.02 9.10023C158.718 8.87827 158.341 8.65631 157.737 8.65631C156.153 8.65631 155.474 10.21 155.474 12.4296V15.9069C155.474 16.6468 155.097 16.8687 154.569 16.8687H154.343C153.815 16.8687 153.438 16.6468 153.438 15.9069V7.1766C153.438 7.10261 153.739 6.95464 154.192 6.95464C154.644 6.95464 155.173 7.1766 155.399 7.91646C155.474 8.13841 155.474 8.36037 155.474 8.65631C155.927 7.47254 156.757 6.80667 158.039 6.80667C159.02 6.80667 159.623 7.25059 159.623 8.06443Z" fill="#0075C9"/>
<path id="Vector_4" d="M165.131 6.80667C168.148 6.80667 170.336 8.95226 170.336 11.9857C170.336 14.9451 168.148 17.0907 165.131 17.0907C162.038 17.0907 159.926 14.9451 159.926 11.9117C159.926 8.87827 162.038 6.80667 165.131 6.80667ZM165.131 8.43436C163.245 8.43436 161.812 9.91407 161.812 11.9117C161.812 13.9093 163.245 15.463 165.131 15.463C167.017 15.463 168.45 13.9833 168.45 11.9857C168.45 9.91407 167.092 8.43436 165.131 8.43436Z" fill="#0075C9"/>
<path id="Vector_5" d="M182.555 11.9117C182.555 15.0191 180.594 17.0907 177.803 17.0907C176.143 17.0907 174.936 16.2029 174.408 15.241V19.8281C174.408 20.568 174.031 20.79 173.503 20.79H173.276C172.748 20.79 172.371 20.568 172.371 19.8281V7.1766C172.371 7.10261 172.673 6.95464 173.125 6.95464C173.654 6.95464 174.182 7.1766 174.332 8.06443C174.332 8.13841 174.408 8.43436 174.408 8.65631C175.162 7.54653 176.294 6.80667 177.953 6.80667C180.518 6.80667 182.555 8.80428 182.555 11.9117ZM180.518 11.9117C180.518 9.84008 179.236 8.43436 177.425 8.43436C175.917 8.43436 174.86 9.2482 174.332 10.506V12.5776C174.332 14.2052 175.766 15.463 177.425 15.463C179.311 15.389 180.518 13.9833 180.518 11.9117Z" fill="#0075C9"/>
<path id="Vector_6" d="M193.568 7.91646V16.7208C193.568 16.7947 193.267 16.9427 192.814 16.9427C192.286 16.9427 191.833 16.7947 191.607 16.0549C191.532 15.9069 191.532 15.685 191.532 15.389C190.853 16.3508 189.721 17.0907 188.212 17.0907C185.572 17.0907 184.365 15.315 184.365 12.8735V7.91646C184.365 7.17661 184.742 6.95465 185.27 6.95465H185.497C186.025 6.95465 186.402 7.17661 186.402 7.91646V12.6515C186.402 14.3532 187.307 15.315 188.816 15.315C190.098 15.315 191.004 14.6492 191.532 13.6134V7.91646C191.532 7.17661 191.909 6.95465 192.437 6.95465H192.663C193.191 6.95465 193.568 7.17661 193.568 7.91646Z" fill="#0075C9"/>
<path id="Vector_7" d="M200.435 6.80667C203.302 6.80667 205.263 8.80428 205.263 11.7637V11.8377C205.263 12.2816 205.112 12.4296 204.66 12.4296H197.267C197.267 12.5776 197.267 12.6515 197.342 12.7995C197.644 14.4272 198.926 15.463 200.737 15.463C202.472 15.463 203.377 14.7231 203.905 13.8353C203.981 13.7613 204.961 13.9833 204.961 14.7971C204.961 15.241 204.584 15.7589 203.83 16.2029C203.075 16.6468 202.019 17.0167 200.661 17.0167C197.493 17.0167 195.381 14.9451 195.381 11.9117C195.305 9.02624 197.418 6.80667 200.435 6.80667ZM200.36 8.28638C198.7 8.28638 197.418 9.47016 197.191 11.0978H203.151C203.075 9.39617 202.019 8.28638 200.36 8.28638Z" fill="#0075C9"/>
<path id="Vector_8" d="M213.334 8.06443C213.334 8.80428 212.731 9.17421 212.731 9.10023C212.429 8.87827 212.052 8.65631 211.448 8.65631C209.864 8.65631 209.185 10.21 209.185 12.4296V15.9069C209.185 16.6468 208.808 16.8687 208.28 16.8687H208.054C207.526 16.8687 207.148 16.6468 207.148 15.9069V7.1766C207.148 7.10261 207.45 6.95464 207.903 6.95464C208.355 6.95464 208.883 7.1766 209.11 7.91646C209.185 8.13841 209.185 8.36037 209.185 8.65631C209.638 7.47254 210.468 6.80667 211.75 6.80667C212.731 6.80667 213.334 7.25059 213.334 8.06443Z" fill="#0075C9"/>
<path id="Vector_9" d="M215.597 13.8353V8.65631H214.843C214.164 8.65631 213.938 8.36037 213.938 7.91645V7.76848C213.938 7.25058 214.164 7.02862 214.843 7.02862H215.597V5.54891C215.597 4.88304 215.974 4.5871 216.502 4.5871H216.729C217.257 4.5871 217.634 4.80905 217.634 5.54891V7.02862H219.897C220.576 7.02862 220.802 7.25058 220.802 7.76848V7.91645C220.802 8.43435 220.576 8.65631 219.897 8.65631H217.634V13.6133C217.634 14.8711 218.011 15.389 218.992 15.389C219.671 15.389 220.123 15.0931 220.425 14.7231C220.5 14.6491 221.029 14.9451 221.029 15.611C221.029 15.9069 220.878 16.2768 220.576 16.4988C220.199 16.8687 219.52 17.0907 218.69 17.0907C216.502 17.0907 215.597 15.9809 215.597 13.8353Z" fill="#0075C9"/>
<path id="Vector_10" d="M227.215 6.80667C230.232 6.80667 232.42 8.95226 232.42 11.9857C232.42 14.9451 230.232 17.0907 227.215 17.0907C224.122 17.0907 222.01 14.9451 222.01 11.9117C221.934 8.87827 224.122 6.80667 227.215 6.80667ZM227.139 8.43436C225.253 8.43436 223.82 9.91407 223.82 11.9117C223.82 13.9093 225.253 15.463 227.139 15.463C229.025 15.463 230.459 13.9833 230.459 11.9857C230.459 9.91407 229.101 8.43436 227.139 8.43436Z" fill="#0075C9"/>
<path id="Vector_11" d="M233.627 15.0191C233.627 14.3532 234.381 14.0573 234.457 14.1313C235.136 14.9451 236.267 15.611 237.851 15.611C239.285 15.611 240.039 15.0931 240.039 14.2792C240.039 13.3174 239.134 13.0955 237.474 12.7255C235.965 12.4296 233.929 11.9857 233.929 9.91407C233.929 8.06443 235.513 6.80667 237.927 6.80667C239.813 6.80667 241.02 7.39856 241.548 8.06443C241.699 8.28638 241.774 8.50834 241.774 8.7303C241.774 9.39617 241.02 9.69211 240.944 9.69211C240.341 8.87827 239.285 8.28638 238.002 8.28638C236.569 8.28638 235.815 8.80428 235.815 9.61813C235.815 10.506 236.72 10.7279 238.304 11.0978C239.813 11.3938 242 11.8377 242 13.9833C242 15.8329 240.416 17.0907 237.851 17.0907C236.267 17.0907 235.136 16.7208 234.457 16.2029C233.853 15.8329 233.627 15.389 233.627 15.0191Z" fill="#0075C9"/>
</g>
<g id="Group_3">
<path id="Vector_12" d="M128.317 36.7709L133.069 24.6372C133.22 24.1933 133.597 23.9714 134.578 23.9714C135.559 23.9714 135.861 24.1933 136.087 24.6372L140.915 36.7709C140.99 36.9189 140.387 37.4368 139.708 37.4368C139.255 37.4368 138.727 37.2148 138.425 36.475L137.218 33.5155H131.862L130.655 36.5489C130.354 37.2888 129.901 37.5108 129.449 37.5108C128.845 37.3628 128.242 36.9189 128.317 36.7709ZM136.69 31.7399L134.503 26.1909L132.315 31.7399H136.69Z" fill="#0075C9"/>
<path id="Vector_13" d="M151.627 31.4439V36.401C151.627 37.1408 151.25 37.3628 150.722 37.3628H150.496C149.967 37.3628 149.59 37.1408 149.59 36.401V31.6659C149.59 30.0382 148.76 29.0024 147.252 29.0024C145.969 29.0024 144.913 29.6683 144.461 30.7041V36.401C144.461 37.1408 144.083 37.3628 143.555 37.3628H143.329C142.801 37.3628 142.424 37.1408 142.424 36.401V27.5967C142.424 27.5227 142.726 27.3747 143.178 27.3747C143.706 27.3747 144.461 27.6707 144.461 28.9284C145.14 27.8926 146.271 27.2267 147.78 27.2267C150.42 27.2267 151.627 29.0024 151.627 31.4439Z" fill="#0075C9"/>
<path id="Vector_14" d="M153.438 32.4057C153.438 29.2984 155.399 27.2268 158.19 27.2268C159.774 27.2268 161.057 27.9666 161.585 28.8544V23.5275C161.585 23.4535 161.962 23.3055 162.339 23.3055C163.018 23.3055 163.621 23.6015 163.621 25.0072V36.401C163.621 37.1408 163.244 37.3628 162.716 37.3628H162.49C161.962 37.3628 161.585 37.1408 161.585 36.401V35.6611C160.83 36.8449 159.623 37.5847 158.039 37.5847C155.474 37.5847 153.438 35.5131 153.438 32.4057ZM161.66 30.926C161.132 29.6683 160.151 28.9284 158.567 28.9284C156.681 28.9284 155.474 30.3342 155.474 32.4057C155.474 34.4773 156.757 35.8831 158.567 35.8831C160.227 35.8831 161.66 34.6993 161.66 32.9976V30.926Z" fill="#0075C9"/>
<path id="Vector_15" d="M167.393 23.1575C168.147 23.1575 168.6 23.6014 168.6 24.3413C168.6 25.0812 168.147 25.5251 167.393 25.5251C166.638 25.5251 166.186 25.0812 166.186 24.3413C166.11 23.6014 166.563 23.1575 167.393 23.1575ZM166.261 28.3365C166.261 27.5967 166.638 27.3747 167.167 27.3747H167.393C167.921 27.3747 168.298 27.5967 168.298 28.3365V36.401C168.298 37.1408 167.921 37.3628 167.393 37.3628H167.167C166.638 37.3628 166.261 37.1408 166.261 36.401V28.3365Z" fill="#0075C9"/>
<path id="Vector_16" d="M180.217 31.4439V36.401C180.217 37.1408 179.84 37.3628 179.312 37.3628H179.085C178.557 37.3628 178.18 37.1408 178.18 36.401V31.6659C178.18 30.0382 177.35 29.0024 175.842 29.0024C174.559 29.0024 173.503 29.6683 173.05 30.7041V36.401C173.05 37.1408 172.673 37.3628 172.145 37.3628H171.919C171.391 37.3628 171.014 37.1408 171.014 36.401V27.5967C171.014 27.5227 171.315 27.3747 171.768 27.3747C172.296 27.3747 173.05 27.6707 173.05 28.9284C173.729 27.8926 174.861 27.2267 176.37 27.2267C179.01 27.2267 180.217 29.0024 180.217 31.4439Z" fill="#0075C9"/>
<path id="Vector_17" d="M187.309 27.2267C190.326 27.2267 192.514 29.3723 192.514 32.4057C192.514 35.3652 190.326 37.5108 187.309 37.5108C184.216 37.5108 182.103 35.3652 182.103 32.3318C182.028 29.3723 184.216 27.2267 187.309 27.2267ZM187.233 28.9284C185.347 28.9284 183.914 30.4081 183.914 32.4057C183.914 34.4034 185.347 35.9571 187.233 35.9571C189.119 35.9571 190.552 34.4773 190.552 32.4797C190.552 30.4081 189.194 28.9284 187.233 28.9284Z" fill="#0075C9"/>
<path id="Vector_18" d="M193.721 35.4392C193.721 34.7733 194.475 34.4773 194.551 34.5513C195.229 35.3652 196.361 36.031 197.945 36.031C199.378 36.031 200.133 35.5131 200.133 34.6993C200.133 33.7375 199.228 33.5155 197.568 33.1456C196.059 32.8497 194.022 32.4057 194.022 30.3341C194.022 28.4845 195.607 27.2267 198.021 27.2267C199.906 27.2267 201.113 27.8186 201.642 28.4845C201.792 28.7065 201.868 28.9284 201.868 29.1504C201.868 29.8162 201.113 30.1122 201.038 30.1122C200.435 29.2983 199.378 28.7065 198.096 28.7065C196.663 28.7065 195.908 29.2244 195.908 30.0382C195.908 30.926 196.814 31.148 198.398 31.5179C199.906 31.8139 202.094 32.2578 202.094 34.4034C202.094 36.253 200.51 37.5108 197.945 37.5108C196.361 37.5108 195.229 37.1408 194.551 36.6229C193.947 36.327 193.721 35.8831 193.721 35.4392Z" fill="#0075C9"/>
<path id="Vector_19" d="M206.998 32.4057C206.998 29.2984 208.959 27.2268 211.751 27.2268C213.335 27.2268 214.617 27.9666 215.145 28.8544V23.5275C215.145 23.4535 215.522 23.3055 215.9 23.3055C216.578 23.3055 217.182 23.6015 217.182 25.0072V36.401C217.182 37.1408 216.805 37.3628 216.277 37.3628H216.05C215.522 37.3628 215.145 37.1408 215.145 36.401V35.6611C214.391 36.8449 213.184 37.5847 211.6 37.5847C208.959 37.5847 206.998 35.5131 206.998 32.4057ZM215.145 30.926C214.617 29.6683 213.636 28.9284 212.052 28.9284C210.166 28.9284 208.959 30.3342 208.959 32.4057C208.959 34.4773 210.242 35.8831 212.052 35.8831C213.712 35.8831 215.145 34.6993 215.145 32.9976V30.926Z" fill="#0075C9"/>
<path id="Vector_20" d="M224.272 27.2267C227.139 27.2267 229.1 29.2244 229.1 32.1838V32.3318C229.1 32.7757 228.949 32.9236 228.497 32.9236H221.028C221.028 33.0716 221.028 33.1456 221.104 33.2936C221.406 34.9213 222.688 35.9571 224.499 35.9571C226.234 35.9571 227.139 35.2172 227.667 34.3294C227.742 34.2554 228.723 34.4773 228.723 35.2912C228.723 35.7351 228.346 36.253 227.591 36.6969C226.837 37.1408 225.781 37.5108 224.423 37.5108C221.255 37.5108 219.143 35.4392 219.143 32.4057C219.143 29.4463 221.255 27.2267 224.272 27.2267ZM224.197 28.7804C222.537 28.7804 221.255 29.9642 221.028 31.5919H226.988C226.913 29.8902 225.856 28.7804 224.197 28.7804Z" fill="#0075C9"/>
<path id="Vector_21" d="M231.061 36.401V23.5275C231.061 23.4535 231.438 23.3055 231.815 23.3055C232.494 23.3055 233.097 23.6015 233.097 25.0072V36.401C233.097 37.1408 232.72 37.3628 232.192 37.3628H231.966C231.438 37.3628 231.061 37.1408 231.061 36.401Z" fill="#0075C9"/>
</g>
<g id="Group_4">
<path id="Vector_22" d="M129.523 56.895V45.7971C129.523 45.0573 129.976 44.6133 130.655 44.6133H134.125C137.444 44.6133 139.33 46.0931 139.33 48.8305C139.33 51.568 137.52 53.0477 134.05 53.0477H131.636V56.895C131.636 57.4869 131.334 57.8568 130.73 57.8568H130.429C129.825 57.8568 129.523 57.5608 129.523 56.895ZM137.143 48.8305C137.143 47.2028 136.086 46.315 134.05 46.315H131.56V51.346H133.974C136.086 51.346 137.143 50.5322 137.143 48.8305Z" fill="#0075C9"/>
<path id="Vector_23" d="M145.667 47.7947C148.534 47.7947 150.495 49.7924 150.495 52.7518V52.8998C150.495 53.3437 150.345 53.4916 149.892 53.4916H142.499C142.499 53.6396 142.499 53.7136 142.575 53.8616C142.876 55.4893 144.159 56.5251 145.969 56.5251C147.704 56.5251 148.609 55.7852 149.138 54.8974C149.213 54.8234 150.194 55.0453 150.194 55.8592C150.194 56.3031 149.816 56.821 149.062 57.2649C148.308 57.7088 147.252 58.0788 145.894 58.0788C142.725 58.0788 140.613 56.0072 140.613 52.9737C140.538 50.0143 142.725 47.7947 145.667 47.7947ZM145.592 49.2745C143.932 49.2745 142.65 50.4582 142.424 52.0859H148.383C148.383 50.3842 147.327 49.2745 145.592 49.2745Z" fill="#0075C9"/>
<path id="Vector_24" d="M158.567 49.0525C158.567 49.7924 157.963 50.1623 157.963 50.0883C157.661 49.8663 157.284 49.6444 156.681 49.6444C155.097 49.6444 154.418 51.1981 154.418 53.4176V56.895C154.418 57.6348 154.04 57.8568 153.512 57.8568H153.286C152.758 57.8568 152.381 57.6348 152.381 56.895V48.1647C152.381 48.0907 152.683 47.9427 153.135 47.9427C153.588 47.9427 154.116 48.1647 154.342 48.9045C154.418 49.1265 154.418 49.3484 154.418 49.6444C154.87 48.4606 155.7 47.7947 156.982 47.7947C157.963 47.7947 158.567 48.2387 158.567 49.0525Z" fill="#0075C9"/>
<path id="Vector_25" d="M169.203 48.9045V57.7088C169.203 57.7828 168.901 57.9308 168.449 57.9308C167.921 57.9308 167.468 57.7828 167.242 57.0429C167.166 56.895 167.166 56.673 167.166 56.3771C166.488 57.3389 165.356 58.0787 163.847 58.0787C161.207 58.0787 160 56.3031 160 53.8616V48.9045C160 48.1647 160.377 47.9427 160.905 47.9427H161.132C161.66 47.9427 162.037 48.1647 162.037 48.9045V53.6396C162.037 55.3413 162.942 56.3031 164.451 56.3031C165.733 56.3031 166.638 55.6372 167.166 54.6014V48.9045C167.166 48.1647 167.544 47.9427 168.072 47.9427H168.298C168.826 47.9427 169.203 48.1647 169.203 48.9045ZM162.791 46.389C162.791 46.0191 164.3 43.1336 165.809 43.1336C166.412 43.1336 166.714 43.5776 166.714 44.0215C166.714 45.5012 163.168 46.463 162.942 46.463C162.867 46.537 162.791 46.463 162.791 46.389Z" fill="#0075C9"/>
</g>
<g id="Group_5">
<path id="Vector_26" d="M92.8619 30.852C92.2584 30.926 91.5795 30.926 90.976 31C89.1655 31.074 87.2796 31.2959 85.4691 31.5179C82.0745 31.9618 78.6044 32.4797 75.2852 33.1456C73.7765 33.4415 72.1923 33.7375 70.6836 34.1074C69.9292 34.2554 69.1749 34.4033 68.4205 34.6253C65.0259 35.3652 61.7067 36.179 58.3875 37.0668C57.0296 37.4368 55.6717 37.8067 54.3893 38.2506C47.9018 40.2482 41.4897 42.3938 35.0776 44.7613C32.1356 45.8711 29.1936 46.9809 26.1761 48.0907C21.9517 49.5704 17.7272 51.3461 13.5782 53.1957C12.8239 53.5656 12.0695 53.9356 11.2397 54.2315C10.5608 54.4535 9.95728 54.8234 9.35379 55.1193C7.84506 55.8592 6.41177 56.5251 4.90304 57.2649C3.54518 57.9308 2.26276 58.6706 0.90491 59.3365C0.301418 59.6325 0.150545 59.5585 -0.000327356 58.8926C-0.1512 58.1527 0.075109 57.5609 0.527727 57.043C2.03646 55.1933 3.54518 53.4177 5.05391 51.568C6.11002 50.3103 7.16613 49.0525 8.1468 47.7947C8.29768 47.6468 8.37311 47.4248 8.59942 47.4248C8.67486 47.4248 8.67486 47.3508 8.7503 47.3508C8.90117 46.611 9.50466 46.1671 9.95728 45.6492C11.0134 44.3174 12.1449 43.0597 13.201 41.7279C15.087 39.5084 16.8974 37.2148 18.7833 34.9952C20.3675 33.0716 22.0271 31.148 23.6113 29.2243C26.4024 25.895 29.1936 22.4916 31.9847 19.1623C33.1163 17.7566 35.6057 17.5346 36.8881 18.8663C37.4916 19.4582 38.0196 20.0501 38.4722 20.716C38.8494 21.2339 39.3775 21.7518 39.8301 22.2697C40.509 23.0835 41.188 23.8234 41.7914 24.6372C41.9423 24.8592 42.0177 24.8592 42.1686 24.6372C43.6019 22.8616 45.0352 21.1599 46.4685 19.3842C47.6 17.9785 48.807 16.5728 49.9386 15.1671C51.221 13.6134 52.5034 12.0597 53.7858 10.58C55.7472 8.21241 57.7085 5.84487 59.6699 3.47733C60.1225 2.88544 60.6505 2.29356 61.1032 1.70167C62.0838 0.5179 63.4417 0 65.0259 0C66.3083 0.0739857 67.5153 0.5179 68.3451 1.47971C68.8731 2.0716 69.3257 2.73747 69.8538 3.32936C70.3064 3.84726 70.759 4.36515 71.1362 4.88305C71.5888 5.47494 72.0414 5.99284 72.4941 6.58472C72.7958 7.02864 73.3239 7.47255 73.701 7.91647C74.908 9.3222 76.115 10.8019 77.322 12.2076C80.1131 15.537 82.9043 18.8663 85.6954 22.2697C87.9585 25.0072 90.2971 27.8186 92.5601 30.5561C92.7865 30.6301 92.8619 30.7041 92.8619 30.852Z" fill="#0075C9"/>
<path id="Vector_27" d="M98.8214 61.1122C97.7652 61.1122 96.7091 61.1122 95.653 61.1122C95.4267 61.1122 95.3513 61.0382 95.3513 60.8162C95.3513 59.9284 95.2004 59.0406 94.9741 58.1528C94.6724 57.2649 94.2952 56.5251 93.7671 55.7852C93.0882 54.7494 92.1075 53.9356 91.1268 53.1957C89.769 52.2339 88.2603 51.4201 86.6761 50.8282C85.7709 50.4582 84.8656 50.1623 83.9604 49.8664C82.9043 49.4964 81.7727 49.3485 80.7166 49.0525C79.8868 48.7566 78.9816 48.6826 78.0763 48.5346C76.6431 48.3127 75.2098 48.1647 73.7765 48.0167C70.9853 47.7948 68.2696 47.7948 65.4785 47.8687C63.5926 47.9427 61.7821 48.0907 59.8962 48.2387C57.9348 48.3866 55.9735 48.6826 54.0121 48.9045C52.5034 49.1265 50.9947 49.3485 49.4859 49.6444C47.9772 49.8664 46.5439 50.1623 45.0352 50.4582C43.451 50.7542 41.7914 51.1241 40.2073 51.494C38.5477 51.79 36.9635 52.2339 35.3793 52.6038C33.7197 52.9738 32.0601 53.3437 30.476 53.8616C29.0427 54.3055 27.6094 54.6014 26.2515 55.0454C24.8182 55.4893 23.3095 55.8592 21.8762 56.3031C20.4429 56.747 18.9342 57.117 17.5009 57.6349C16.0676 58.1528 14.6343 58.5227 13.2765 59.0406C12.2958 59.4105 11.2397 59.7064 10.1836 60.0764C8.82572 60.5943 7.46786 61.0382 6.11001 61.5561C5.65739 61.7041 5.12933 61.926 4.67671 62C4.29953 62.074 4.07322 61.852 3.77148 61.7041C3.62061 61.5561 3.77148 61.4821 3.92235 61.4081C4.45041 61.1862 4.97846 60.9642 5.50652 60.7423C7.16612 60.0764 8.82572 59.4845 10.4853 58.8186C12.3712 58.0788 14.3326 57.4129 16.2185 56.747C18.1798 56.0812 20.0657 55.4153 22.0271 54.7494C23.913 54.1575 25.7235 53.5656 27.6094 52.9738C29.9479 52.2339 32.2864 51.494 34.7004 50.8282C36.8126 50.2363 38.9248 49.6444 41.0371 49.0525C43.3756 48.4606 45.6387 47.8687 47.9772 47.3508C50.1649 46.8329 52.428 46.315 54.6156 45.8711C56.2752 45.5752 57.9348 45.2792 59.6699 45.0573C61.7821 44.7613 63.8943 44.5394 66.0065 44.3914C67.5907 44.2434 69.1749 44.1695 70.759 44.0215C72.7958 43.8735 74.7571 43.8735 76.7939 43.7995C78.529 43.7995 80.3394 43.7995 82.0745 43.9475C83.2815 44.0215 84.413 44.1695 85.5445 44.3174C86.6007 44.4654 87.6568 44.6134 88.7129 44.8353C89.9199 45.0573 91.1268 45.3532 92.3338 45.5752C93.3899 45.7971 94.446 46.1671 95.5022 46.537C96.9354 47.0549 98.3687 47.6468 99.6512 48.4606C101.084 49.3485 102.367 50.4582 103.197 52.0119C103.876 53.3437 104.026 54.7494 103.876 56.1551C103.725 57.7828 103.121 59.2625 102.442 60.6683C102.367 60.8902 102.216 60.8902 102.065 60.8902C100.934 61.1122 99.8775 61.1122 98.8214 61.1122Z" fill="#0075C9"/>
<path id="Vector_28" d="M103.876 44.0215C102.971 43.6516 102.065 43.2077 101.16 42.8377C98.3689 41.7279 95.5024 41.0621 92.4849 40.6182C88.3359 40.0263 84.2623 39.9523 80.1133 40.1003C76.6432 40.1742 73.1732 40.4702 69.7785 40.8401C67.3646 41.1361 64.8752 41.432 62.4612 41.8759C58.4631 42.5418 54.465 43.3556 50.4668 44.3174C45.3371 45.5012 40.3583 46.9809 35.3041 48.5346C31.2305 49.7924 27.2324 51.1241 23.2343 52.6038C16.1433 55.1193 9.12766 57.8568 2.18751 60.8162C1.81033 60.9642 1.50859 60.8902 1.20684 60.6683C0.980532 60.5203 0.980532 60.3723 1.20684 60.2983C1.7349 59.9284 2.26295 59.7065 2.71557 59.4845C9.58028 56.2291 16.6713 53.3437 23.7623 50.6802C29.3446 48.6086 34.9269 46.611 40.5846 44.8353C44.8845 43.5036 49.1844 42.1719 53.5597 40.9881C57.7087 39.8783 61.9332 38.8425 66.233 38.0287C69.4768 37.3628 72.7206 36.9189 75.9643 36.475C78.5292 36.105 81.1694 35.8091 83.8097 35.6611C87.5815 35.3652 91.2779 35.2912 95.0497 35.4392C95.5778 35.4392 96.0304 35.4392 96.5585 35.4392C96.7093 35.4392 96.8602 35.5131 97.0111 35.6611C99.2742 38.3986 101.613 41.1361 103.876 43.9475C103.8 43.8735 103.876 43.9475 103.876 44.0215Z" fill="#0075C9"/>
<path id="Vector_29" d="M105.611 61.1122C108.629 58.3007 110.138 55.0453 109.609 51.0501C109.836 51.0501 109.836 51.1981 109.911 51.2721C111.043 52.6038 112.174 54.0095 113.306 55.3413C114.815 57.1169 114.211 59.5585 112.099 60.6682C111.495 60.9642 110.892 61.1861 110.288 61.1861C108.704 61.1122 107.195 61.1122 105.611 61.1122Z" fill="#0075C9"/>
</g>
</g>
</svg>
